<?xml version="1.0" encoding="utf-8"?>
<!-- Generator: Adobe Illustrator 26.0.1, SVG Export Plug-In . SVG Version: 6.00 Build 0)  -->
<svg version="1.1" id="Layer_1" xmlns="http://www.w3.org/2000/svg" xmlns:xlink="http://www.w3.org/1999/xlink" x="0px" y="0px"
	 viewBox="0 0 854.1 704" style="enable-background:new 0 0 854.1 704;" xml:space="preserve">
<style type="text/css">
	.st0{fill:#F2F2F2;}
</style>
<g>
	<g>
		<g>
			<g>
				<path class="st0" d="M607.3,579.9c7.2-7.3,10.8-16.7,10.8-28v-98.8c0-13.9-4.6-26.5-13.8-37.6L488,338.1v-78h74.5v96.1h55.6
					V247.9c0-11.3-3.6-20.7-10.8-28c-7.3-7.3-16.7-11.1-28-11.1H471.8c-11.3,0-20.8,3.7-28.2,11c-7.4,7.3-11.2,16.8-11.2,28.1v86.5
					c0,13.9,4.8,26.7,14.3,38.1L562.5,450v95.1L488,597.2V434.7h-55.6V704l55.6-38.9L588.1,595C594.8,590.3,601.2,585.3,607.3,579.9
					L607.3,579.9z"/>
			</g>
		</g>
		<g>
			<g>
				<path class="st0" d="M351.1,356.1v-96.1h-74.5v78l116.4,77.4c9.2,11,13.8,23.7,13.8,37.6v251l-55.6-38.9L250.9,595
					c-5.4-3.8-10.6-7.8-15.5-12c-1.2-1-2.4-2-3.6-3.1c-7.2-7.3-10.8-16.7-10.8-28V434.7h55.6v110.4l74.5,52.2V450l-115.9-77.4
					c-9.5-11.4-14.3-24.2-14.3-38.1v-86.5c0-11.3,3.8-20.8,11.2-28.1c7.4-7.3,16.9-11,28.2-11h107.5c11.3,0,20.7,3.7,28,11.1
					c7.2,7.4,10.8,16.8,10.8,28v108.2L351.1,356.1L351.1,356.1L351.1,356.1z"/>
			</g>
		</g>
	</g>
	<g>
		<path class="st0" d="M186.9,532.4v39.9H0V208.8h184.9v40c0,8.5-6.9,15.4-15.4,15.4H60.7v99.3h113.1v56H60.7V517h110.9
			C180,517,186.9,523.9,186.9,532.4z"/>
	</g>
	<g>
		<path class="st0" d="M638.2,553.9v18.4h215.9V517H708.5l138.7-263c4.5-8.4,6.8-17.9,6.8-27.4v-17.7H652.7v55.3h131L645,526.5
			C640.5,535,638.2,544.4,638.2,553.9z"/>
	</g>
	<path class="st0" d="M598,174.9H241c-11,0-20-9-20-20v-36.4h397v36.4C618,165.9,609.1,174.9,598,174.9z"/>
	<polygon class="st0" points="419.5,64.8 447.1,84.9 436.5,52.5 464.2,32.4 430,32.5 419.5,0 409,32.5 374.9,32.4 402.6,52.5 
		391.9,84.9 	"/>
</g>
</svg>
