<svg id="Layer_1" data-name="Layer 1" xmlns="http://www.w3.org/2000/svg" viewBox="0 0 1030 461.89"><defs><style>.cls-1{fill:#070707;}.cls-2{isolation:isolate;}</style></defs><g id="Logo"><path class="cls-1" d="M486.57,481.49l4.28-21.86L522.3,288c22.77-125.31,78.22-135.64,97.51-138.61-54.34,3.88-115.9,39.37-135.85,149.37L454.51,454.07,449,481.49Z" transform="translate(-25 -23.92)"/><path class="cls-1" d="M183,294.44l-34,11.81q-6-19.14-15.78-28.26t-26.73-9.13q-15.69,0-24.25,9.29a30.57,30.57,0,0,0-8.55,21.32q0,13.27,9.61,21.14t38.36,18.81q24.53,9.34,37.75,17.81a65.13,65.13,0,0,1,21.43,22.66Q189,394.1,189,412.79q0,30.33-21.42,51.67T107.54,485.8q-66.66,0-82.54-67.37l35.63-10.05q9.34,44.44,48.68,44.44,19.22,0,29.19-10a33.46,33.46,0,0,0,10-24.61,32.52,32.52,0,0,0-6.88-19.93q-6.87-9.17-34.21-19.57-28.93-11-41.72-18.53T43.87,337.83q-9-14.82-9-33.69,0-28.74,20-48.33t53.18-19.58Q166.81,236.23,183,294.44Z" transform="translate(-25 -23.92)"/><path class="cls-1" d="M270.9,240.64h44.68L380.22,481.4H339.86l-15.1-60.33H254.17l-15,60.33h-38Zm46,149L289.3,279.45,262,389.68Z" transform="translate(-25 -23.92)"/><path class="cls-1" d="M559.21,240.64h147.1v33.87H652.52V481.39H612.66V274.51H559.21Z" transform="translate(-25 -23.92)"/><path class="cls-1" d="M723.59,240.64H861.51v31.93H763.45v68.78h76.9v32.1h-76.9v75.31H863.1v32.63H723.59Z" transform="translate(-25 -23.92)"/><path class="cls-1" d="M889.73,240.64H929.6V355.47l72.64-114.83h42.18L982.34,329,1055,481.39h-43.18L957.94,361.86,929.6,402.38v79H889.74V240.64Z" transform="translate(-25 -23.92)"/><path class="cls-1" d="M403.51,240.54H361.59l62.2,240.76,15.47.19,5.44-27.08,4.36-23Z" transform="translate(-25 -23.92)"/><g class="cls-2"><path class="cls-1" d="M213,177.77H162.44V23.92h49.94V36H176.11V93.42h33v12.29h-33v60H213Z" transform="translate(-25 -23.92)"/><path class="cls-1" d="M296.54,166.86a10.45,10.45,0,0,1-10.92,10.91h-40.4a10.43,10.43,0,0,1-10.91-10.91v-132a10.43,10.43,0,0,1,10.91-10.91h40.4a10.45,10.45,0,0,1,10.92,10.91V70.61H282.77V36H248V165.68h34.8V112.49H266.36V100.7h30.18Z" transform="translate(-25 -23.92)"/><path class="cls-1" d="M371.45,177.77H320.92V23.92h49.94V36H334.58V93.42h33v12.29h-33v60h36.87Z" transform="translate(-25 -23.92)"/></g></g></svg>