<?xml version="1.0" encoding="utf-8"?>
<!-- Generator: Adobe Illustrator 26.0.1, SVG Export Plug-In . SVG Version: 6.00 Build 0)  -->
<svg version="1.1" id="Layer_1" xmlns="http://www.w3.org/2000/svg" xmlns:xlink="http://www.w3.org/1999/xlink" x="0px" y="0px"
	 viewBox="0 0 1080 508" style="enable-background:new 0 0 1080 508;" xml:space="preserve">
<style type="text/css">
	.st0{fill:#EFEFEF;}
	.st1{enable-background:new    ;}
</style>
<g id="Logo_3_">
	<g>
		<g>
			<path class="st0" d="M486.6,481.5l4.3-21.9L522.3,288c22.8-125.3,78.2-135.6,97.5-138.6c-54.3,3.9-115.9,39.4-135.8,149.4
				l-29.5,155.4l-5.5,27.4H486.6z"/>
			<g>
				<path class="st0" d="M183,294.4l-34,11.8c-4-12.8-9.3-22.2-15.8-28.3c-6.5-6.1-15.4-9.1-26.7-9.1c-10.5,0-18.5,3.1-24.2,9.3
					c-5.7,6.2-8.6,13.3-8.6,21.3c0,8.8,3.2,15.9,9.6,21.1c6.4,5.3,19.2,11.5,38.4,18.8c16.3,6.2,28.9,12.2,37.7,17.8
					s16,13.2,21.4,22.7c5.5,9.5,8.2,20.4,8.2,32.9c0,20.2-7.1,37.5-21.4,51.7c-14.3,14.2-34.3,21.3-60.1,21.3
					c-44.4,0-72-22.5-82.5-67.4l35.6-10.1c6.2,29.6,22.5,44.4,48.7,44.4c12.8,0,22.5-3.3,29.2-10c6.6-6.6,10-14.8,10-24.6
					c0-7.2-2.3-13.8-6.9-19.9c-4.6-6.1-16-12.6-34.2-19.6c-19.3-7.3-33.2-13.5-41.7-18.5c-8.5-5.1-15.8-12.5-21.8-22.4
					c-6-9.9-9-21.1-9-33.7c0-19.2,6.7-35.3,20-48.3c13.3-13.1,31.1-19.6,53.2-19.6C147.2,236.2,172.2,255.6,183,294.4z"/>
				<path class="st0" d="M270.9,240.6h44.7l64.6,240.8h-40.4l-15.1-60.3h-70.6l-15,60.3h-38L270.9,240.6z M316.9,389.7l-27.6-110.2
					L262,389.7H316.9z"/>
			</g>
			<g>
				<path class="st0" d="M559.2,240.6h147.1v33.9h-53.8v206.9h-39.9V274.5h-53.4V240.6z"/>
				<path class="st0" d="M723.6,240.6h137.9v31.9h-98.1v68.8h76.9v32.1h-76.9v75.3h99.6v32.6H723.6V240.6z"/>
				<path class="st0" d="M889.7,240.6h39.9v114.8l72.6-114.8h42.2L982.3,329l72.7,152.4h-43.2l-53.9-119.5l-28.3,40.5v79h-39.9
					L889.7,240.6L889.7,240.6z"/>
			</g>
			<g>
				<g>
					<path class="st0" d="M403.5,240.5h-41.9l62.2,240.8l15.5,0.2l5.4-27.1l4.4-23L403.5,240.5z"/>
				</g>
			</g>
		</g>
	</g>
	<g class="st1">
		<path class="st0" d="M213,177.8h-50.5V23.9h49.9V36h-36.3v57.4h33v12.3h-33v60H213V177.8z"/>
		<path class="st0" d="M296.5,166.9c0,3.2-1,5.8-3,7.9c-2,2-4.7,3-7.9,3h-40.4c-3.2,0-5.8-1-7.9-3c-2-2-3-4.7-3-7.9v-132
			c0-3.2,1-5.8,3-7.9c2-2,4.7-3,7.9-3h40.4c3.2,0,5.8,1,7.9,3c2,2,3,4.7,3,7.9v35.8h-13.8V36H248v129.7h34.8v-53.2h-16.4v-11.8h30.2
			V166.9z"/>
		<path class="st0" d="M371.4,177.8h-50.5V23.9h49.9V36h-36.3v57.4h33v12.3h-33v60h36.9V177.8z"/>
	</g>
</g>
</svg>
